<svg xmlns="http://www.w3.org/2000/svg" xmlns:xlink="http://www.w3.org/1999/xlink" width="1920" zoomAndPan="magnify" viewBox="0 0 1440 809.999993" height="1080" preserveAspectRatio="xMidYMid meet" version="1.0"><defs><g/><clipPath id="bbe0924770"><path d="M 370.542969 246.703125 L 435.3125 246.703125 L 435.3125 420.992188 L 370.542969 420.992188 Z M 370.542969 246.703125 " clip-rule="nonzero"/></clipPath><clipPath id="3471e1bf73"><path d="M 402.929688 246.703125 C 385.042969 246.703125 370.542969 285.71875 370.542969 333.847656 C 370.542969 381.976562 385.042969 420.992188 402.929688 420.992188 C 420.8125 420.992188 435.3125 381.976562 435.3125 333.847656 C 435.3125 285.71875 420.8125 246.703125 402.929688 246.703125 Z M 402.929688 246.703125 " clip-rule="nonzero"/></clipPath><clipPath id="a92bde37cf"><path d="M 270 347 L 366 347 L 366 468 L 270 468 Z M 270 347 " clip-rule="nonzero"/></clipPath><clipPath id="cf59358505"><path d="M 231.746094 368.398438 L 304.160156 313.78125 L 404.160156 446.363281 L 331.746094 500.980469 Z M 231.746094 368.398438 " clip-rule="nonzero"/></clipPath><clipPath id="78ffda7167"><path d="M 231.746094 368.398438 L 304.160156 313.78125 L 404.160156 446.363281 L 331.746094 500.980469 Z M 231.746094 368.398438 " clip-rule="nonzero"/></clipPath><clipPath id="523fc4b126"><path d="M 443 347 L 539 347 L 539 468 L 443 468 Z M 443 347 " clip-rule="nonzero"/></clipPath><clipPath id="ab171ddae3"><path d="M 505.035156 313.851562 L 577.0625 368.980469 L 476.125 500.851562 L 404.101562 445.722656 Z M 505.035156 313.851562 " clip-rule="nonzero"/></clipPath><clipPath id="f376caef05"><path d="M 505.035156 313.851562 L 577.0625 368.980469 L 476.125 500.851562 L 404.101562 445.722656 Z M 505.035156 313.851562 " clip-rule="nonzero"/></clipPath><clipPath id="a5ff8d3046"><path d="M 296.539062 479.425781 L 339.292969 479.425781 L 339.292969 522.179688 L 296.539062 522.179688 Z M 296.539062 479.425781 " clip-rule="nonzero"/></clipPath><clipPath id="a0f858af0b"><path d="M 317.917969 479.425781 C 306.109375 479.425781 296.539062 488.996094 296.539062 500.804688 C 296.539062 512.609375 306.109375 522.179688 317.917969 522.179688 C 329.722656 522.179688 339.292969 512.609375 339.292969 500.804688 C 339.292969 488.996094 329.722656 479.425781 317.917969 479.425781 Z M 317.917969 479.425781 " clip-rule="nonzero"/></clipPath><clipPath id="3ff210adf1"><path d="M 468.863281 479.625 L 511.617188 479.625 L 511.617188 522.382812 L 468.863281 522.382812 Z M 468.863281 479.625 " clip-rule="nonzero"/></clipPath><clipPath id="aba8161e00"><path d="M 490.242188 479.625 C 478.433594 479.625 468.863281 489.199219 468.863281 501.003906 C 468.863281 512.8125 478.433594 522.382812 490.242188 522.382812 C 502.046875 522.382812 511.617188 512.8125 511.617188 501.003906 C 511.617188 489.199219 502.046875 479.625 490.242188 479.625 Z M 490.242188 479.625 " clip-rule="nonzero"/></clipPath></defs><g clip-path="url(#bbe0924770)"><g clip-path="url(#3471e1bf73)"><path fill="#2b3775" d="M 370.542969 246.703125 L 435.3125 246.703125 L 435.3125 420.992188 L 370.542969 420.992188 Z M 370.542969 246.703125 " fill-opacity="1" fill-rule="nonzero"/></g></g><g clip-path="url(#a92bde37cf)"><g clip-path="url(#cf59358505)"><g clip-path="url(#78ffda7167)"><path fill="#2b3775" d="M 348.425781 384.375 C 373.394531 417.480469 363.4375 467.085938 363.4375 467.085938 C 363.4375 467.085938 312.308594 463.550781 287.339844 430.449219 C 262.371094 397.34375 273.023438 347.207031 273.023438 347.207031 C 273.023438 347.207031 323.457031 351.269531 348.425781 384.375 " fill-opacity="1" fill-rule="nonzero"/></g></g></g><g clip-path="url(#523fc4b126)"><g clip-path="url(#ab171ddae3)"><g clip-path="url(#f376caef05)"><path fill="#2b3775" d="M 520.910156 430.542969 C 495.710938 463.46875 445.25 467.171875 445.25 467.171875 C 445.25 467.171875 434.953125 416.964844 460.152344 384.039062 C 485.355469 351.113281 536.511719 347.941406 536.511719 347.941406 C 536.511719 347.941406 546.113281 397.617188 520.910156 430.542969 " fill-opacity="1" fill-rule="nonzero"/></g></g></g><path fill="#2b3775" d="M 436.332031 497.085938 L 401.328125 439.832031 L 368.894531 496.695312 C 361.339844 508.746094 360.683594 524.414062 368.617188 537.390625 C 379.894531 555.839844 404.191406 561.761719 422.894531 550.632812 C 441.59375 539.511719 447.609375 515.546875 436.332031 497.085938 Z M 436.332031 497.085938 " fill-opacity="1" fill-rule="nonzero"/><g clip-path="url(#a5ff8d3046)"><g clip-path="url(#a0f858af0b)"><path fill="#979edb" d="M 296.539062 479.425781 L 339.292969 479.425781 L 339.292969 522.179688 L 296.539062 522.179688 Z M 296.539062 479.425781 " fill-opacity="1" fill-rule="nonzero"/></g></g><g clip-path="url(#3ff210adf1)"><g clip-path="url(#aba8161e00)"><path fill="#979edb" d="M 468.863281 479.625 L 511.617188 479.625 L 511.617188 522.382812 L 468.863281 522.382812 Z M 468.863281 479.625 " fill-opacity="1" fill-rule="nonzero"/></g></g><g fill="#2b3775" fill-opacity="1"><g transform="translate(576.978145, 465.964377)"><g><path d="M 52.921875 -86.75 L 52.921875 -77.78125 L 31.75 -77.78125 L 31.75 0 L 22.09375 0 L 22.09375 -77.78125 L 1.15625 -77.78125 L 1.15625 -86.75 Z M 52.921875 -86.75 "/></g></g></g><g fill="#2b3775" fill-opacity="1"><g transform="translate(631.058865, 465.964377)"><g><path d="M 18.640625 -86.75 L 18.640625 0 L 8.96875 0 L 8.96875 -86.75 Z M 18.640625 -86.75 "/></g></g></g><g fill="#2b3775" fill-opacity="1"><g transform="translate(658.559485, 465.964377)"><g><path d="M 20.015625 -91.703125 L 51.546875 -18.875 L 83.1875 -91.703125 L 100.796875 0 L 90.90625 0 L 79.734375 -58.6875 L 79.515625 -58.6875 L 51.546875 3.5625 L 23.703125 -58.6875 L 23.46875 -58.6875 L 12.3125 0 L 2.421875 0 Z M 4.828125 -86.75 Z M 4.828125 -86.75 "/></g></g></g><g fill="#2b3775" fill-opacity="1"><g transform="translate(761.658047, 465.964377)"><g><path d="M 53.734375 -86.75 L 53.734375 -77.78125 L 18.40625 -77.78125 L 18.40625 -52.015625 L 52.703125 -52.015625 L 52.703125 -43.03125 L 18.40625 -43.03125 L 18.40625 -8.96875 L 53.734375 -8.96875 L 53.734375 0 L 8.75 0 L 8.75 -86.75 Z M 53.734375 -86.75 "/></g></g></g><g fill="#2b3775" fill-opacity="1"><g transform="translate(823.102965, 465.964377)"><g/></g></g><g fill="#2b3775" fill-opacity="1"><g transform="translate(858.543079, 465.964377)"><g><path d="M 52.921875 -86.75 L 52.921875 -77.78125 L 31.75 -77.78125 L 31.75 0 L 22.09375 0 L 22.09375 -77.78125 L 1.15625 -77.78125 L 1.15625 -86.75 Z M 52.921875 -86.75 "/></g></g></g><g fill="#2b3775" fill-opacity="1"><g transform="translate(912.623814, 465.964377)"><g><path d="M 21.984375 -86.75 C 42.691406 -86.75 53.046875 -78.773438 53.046875 -62.828125 C 53.046875 -56.148438 51.109375 -50.644531 47.234375 -46.3125 C 43.359375 -41.976562 38.046875 -39.503906 31.296875 -38.890625 L 58.90625 0 L 47.0625 0 L 20.828125 -38.078125 L 18.40625 -38.078125 L 18.40625 0 L 8.75 0 L 8.75 -86.75 Z M 18.40625 -46.59375 L 22.671875 -46.59375 C 29.492188 -46.59375 34.648438 -47.859375 38.140625 -50.390625 C 41.628906 -52.921875 43.375 -56.835938 43.375 -62.140625 C 43.375 -67.890625 41.664062 -71.929688 38.25 -74.265625 C 34.84375 -76.609375 29.914062 -77.78125 23.46875 -77.78125 L 18.40625 -77.78125 Z M 18.40625 -46.59375 "/></g></g></g><g fill="#2b3775" fill-opacity="1"><g transform="translate(974.989237, 465.964377)"><g><path d="M 40.734375 -90.90625 L 79.734375 0 L 69.03125 0 L 58.796875 -24.625 L 21.75 -24.625 L 11.28125 0 L 0.6875 0 Z M 25.65625 -33.59375 L 55 -33.59375 L 40.5 -68.34375 Z M 15.65625 -86.75 Z M 15.65625 -86.75 "/></g></g></g><g fill="#2b3775" fill-opacity="1"><g transform="translate(1055.419924, 465.964377)"><g><path d="M 74.90625 -67.765625 C 71.21875 -71.453125 67.09375 -74.289062 62.53125 -76.28125 C 57.96875 -78.28125 53.269531 -79.28125 48.4375 -79.28125 C 42.300781 -79.28125 36.507812 -77.628906 31.0625 -74.328125 C 25.613281 -71.023438 21.316406 -66.613281 18.171875 -61.09375 C 15.035156 -55.570312 13.46875 -49.664062 13.46875 -43.375 C 13.46875 -37.238281 15.054688 -31.367188 18.234375 -25.765625 C 21.421875 -20.171875 25.734375 -15.722656 31.171875 -12.421875 C 36.617188 -9.128906 42.453125 -7.484375 48.671875 -7.484375 C 53.347656 -7.484375 57.96875 -8.476562 62.53125 -10.46875 C 67.09375 -12.46875 71.21875 -15.304688 74.90625 -18.984375 L 74.90625 -7.015625 C 71.21875 -4.328125 67.128906 -2.234375 62.640625 -0.734375 C 58.160156 0.753906 53.617188 1.5 49.015625 1.5 C 41.347656 1.5 34.003906 -0.414062 26.984375 -4.25 C 19.960938 -8.09375 14.34375 -13.460938 10.125 -20.359375 C 5.90625 -27.265625 3.796875 -34.820312 3.796875 -43.03125 C 3.796875 -51.164062 5.828125 -58.703125 9.890625 -65.640625 C 13.960938 -72.585938 19.503906 -78.09375 26.515625 -82.15625 C 33.535156 -86.21875 41.035156 -88.25 49.015625 -88.25 C 53.921875 -88.25 58.710938 -87.441406 63.390625 -85.828125 C 68.078125 -84.222656 71.914062 -82.191406 74.90625 -79.734375 Z M 74.90625 -67.765625 "/></g></g></g><g fill="#2b3775" fill-opacity="1"><g transform="translate(1137.921798, 465.964377)"><g><path d="M 18.40625 -86.75 L 18.40625 -49.59375 L 55.34375 -86.75 L 68.34375 -86.75 L 27.609375 -46.375 L 69.734375 0 L 56.375 0 L 20.828125 -39.8125 L 18.40625 -37.390625 L 18.40625 0 L 8.75 0 L 8.75 -86.75 Z M 18.40625 -86.75 "/></g></g></g></svg>